<svg width="64" height="64" viewBox="0 0 64 64" fill="none" xmlns="http://www.w3.org/2000/svg">
<path d="M61.5454 44.1952L44.659 27.1851L46.5332 17.9541C47.0168 18.1429 47.5309 18.2416 48.05 18.2453H48.0628C50.4473 18.2735 52.4032 16.3633 52.4314 13.9788C52.4597 11.5943 50.5494 9.6384 48.1649 9.61013C45.7804 9.582 43.8245 11.4921 43.7962 13.8767C43.7902 14.3869 43.8746 14.8941 44.0457 15.3749L34.1257 16.5856L17.9444 0.32C17.7458 0.117467 17.4749 0.00226667 17.1913 0C16.9113 0.00146667 16.6432 0.112933 16.4446 0.3104L13.4196 3.3184C13.0032 3.73493 13.0032 4.41013 13.4196 4.82667L15.0473 6.47787C8.74116 18.0737 10.7894 32.4335 20.0862 41.8037C20.1716 41.8853 20.2705 41.9513 20.3785 41.9989C20.3113 42.3599 20.2762 42.7261 20.274 43.0933V55.4667H7.47396C4.52996 55.4701 2.14409 57.856 2.14062 60.8V62.9333C2.14062 63.5224 2.61823 64 3.20729 64H52.274C52.863 64 53.3406 63.5224 53.3406 62.9333V60.8C53.3372 57.856 50.9513 55.4701 48.0073 55.4667H35.2073V49.9829C37.2125 50.4035 39.2556 50.6179 41.3044 50.6229C46.2206 50.6176 51.0586 49.392 55.3844 47.056L57.0206 48.7019C57.2192 48.9044 57.4901 49.0196 57.7737 49.0219C58.0537 49.0204 58.3218 48.9089 58.5204 48.7115L61.5454 45.7035C61.9618 45.2869 61.9618 44.6117 61.5454 44.1952ZM46.5588 12.4661C47.3941 11.6352 48.7449 11.6389 49.5757 12.4743C50.4066 13.3096 50.4029 14.6604 49.5676 15.4912C49.1677 15.8889 48.6266 16.1121 48.0626 16.112H48.0562C46.8781 16.1059 45.9278 15.1459 45.934 13.9676C45.9369 13.4036 46.163 12.8639 46.5629 12.4661H46.5588ZM44.0478 19.4752L42.851 25.3664L40.5001 23.0016L44.0478 19.4752ZM42.8361 17.6715L38.9961 21.4891L36.0254 18.5024L42.8361 17.6715ZM48.0073 57.6C49.7746 57.6 51.2073 59.0327 51.2073 60.8V61.8667H4.27396V60.8C4.27396 59.0327 5.70663 57.6 7.47396 57.6H48.0073ZM33.074 53.3333V55.4667H22.4073V53.3333H33.074ZM22.4073 51.2V43.0933C22.4073 40.5056 24.7998 38.4 27.7406 38.4C30.6814 38.4 33.074 40.5056 33.074 43.0933V51.2H22.4073ZM35.2073 47.808V43.0933C35.2073 39.3291 31.858 36.2667 27.7406 36.2667C25.0785 36.2259 22.5892 37.5809 21.1785 39.8389C13.063 31.2913 11.2356 18.5485 16.6213 8.06467L53.8249 45.4816C48.0801 48.404 41.4946 49.2268 35.2073 47.808ZM57.7854 46.4405L56.2825 44.9291L17.1806 5.59147L15.6713 4.07893L17.1806 2.57493L33.0505 18.5344C33.058 18.5344 33.0622 18.5483 33.0697 18.5536L59.299 44.9365L57.7854 46.4405Z" fill="#2E2F42"/>
<path d="M27.7496 40.5332H27.74C25.9726 40.5305 24.5378 41.9611 24.5352 43.7284C24.5325 45.4957 25.963 46.9305 27.7304 46.9332H27.74C29.5073 46.9359 30.9421 45.5053 30.9448 43.738C30.9474 41.9707 29.5169 40.5359 27.7496 40.5332ZM28.4962 44.4895C28.2954 44.6892 28.0233 44.8009 27.74 44.7999C27.1509 44.7968 26.6758 44.3168 26.6789 43.7277C26.6804 43.4457 26.7934 43.1759 26.9933 42.9769C27.1918 42.7795 27.46 42.668 27.74 42.6665C28.329 42.6696 28.8041 43.1496 28.801 43.7387C28.7996 44.0207 28.6865 44.2905 28.4866 44.4895H28.4962Z" fill="#4D5AE5"/>
</svg>
