<svg width="64" height="64" viewBox="0 0 64 64" fill="none" xmlns="http://www.w3.org/2000/svg">
<path d="M63.948 9.04861C63.8221 8.66348 63.4893 8.38198 63.0872 8.32323L59.2664 7.76747L57.5565 4.30504C57.1981 3.5754 56.0023 3.5754 55.644 4.30504L53.9341 7.76747L50.1131 8.32335C49.711 8.38198 49.3782 8.66261 49.2512 9.04874C49.1265 9.43487 49.2299 9.85937 49.5211 10.1421L52.287 12.8377L51.6343 16.6436C51.566 17.0436 51.7303 17.4479 52.0578 17.6869C52.3895 17.928 52.8225 17.9577 53.182 17.7679L56.5997 15.9705L60.0174 17.7679C60.1731 17.85 60.3449 17.8905 60.5145 17.8905C60.7353 17.8905 60.9562 17.8222 61.1418 17.6867C61.4703 17.4479 61.6345 17.0435 61.5653 16.6435L60.9125 12.8375L63.6784 10.142C63.9682 9.85825 64.0728 9.43474 63.948 9.04861ZM59.0221 11.7025C58.7715 11.9468 58.6562 12.3009 58.716 12.6465L59.0979 14.8748L57.0969 13.8231C56.9411 13.7409 56.7705 13.7004 56.5997 13.7004C56.4291 13.7004 56.2595 13.7409 56.1026 13.8231L54.1014 14.8748L54.4833 12.6465C54.5431 12.3009 54.4278 11.9479 54.1772 11.7025L52.5569 10.1239L54.7948 9.7985C55.1426 9.74837 55.4423 9.52974 55.5981 9.21499L56.5986 7.18833L57.5991 9.21499C57.7549 9.52962 58.0546 9.74837 58.4024 9.7985L60.6403 10.1239L59.0221 11.7025Z" fill="#4D5AE5"/>
<path d="M52.2662 41.0449H50.1328V43.1783H52.2662V41.0449Z" fill="#4D5AE5"/>
<path d="M52.2662 45.3105H50.1328V47.4439H52.2662V45.3105Z" fill="#4D5AE5"/>
<path d="M54.401 43.1777H52.2676V45.3111H54.401V43.1777Z" fill="#4D5AE5"/>
<path d="M50.1334 43.1777H48V45.3111H50.1334V43.1777Z" fill="#4D5AE5"/>
<path d="M44.7994 52.7773H42.666V54.9107H44.7994V52.7773Z" fill="#4D5AE5"/>
<path d="M44.7994 57.0449H42.666V59.1783H44.7994V57.0449Z" fill="#4D5AE5"/>
<path d="M46.9342 54.9121H44.8008V57.0455H46.9342V54.9121Z" fill="#4D5AE5"/>
<path d="M42.6666 54.9121H40.5332V57.0455H42.6666V54.9121Z" fill="#4D5AE5"/>
<path d="M32.0006 48.5117H29.8672V50.6451H32.0006V48.5117Z" fill="#4D5AE5"/>
<path d="M32.0006 52.7773H29.8672V54.9107H32.0006V52.7773Z" fill="#4D5AE5"/>
<path d="M34.1334 50.6445H32V52.7779H34.1334V50.6445Z" fill="#4D5AE5"/>
<path d="M29.8658 50.6445H27.7324V52.7779H29.8658V50.6445Z" fill="#4D5AE5"/>
<path d="M11.733 12.2441H9.59961V14.3776H11.733V12.2441Z" fill="#4D5AE5"/>
<path d="M11.733 16.5117H9.59961V18.6451H11.733V16.5117Z" fill="#4D5AE5"/>
<path d="M13.8658 14.377H11.7324V16.5104H13.8658V14.377Z" fill="#4D5AE5"/>
<path d="M9.6002 14.377H7.4668V16.5104H9.6002V14.377Z" fill="#4D5AE5"/>
<path d="M49.4295 28.3189C48.8546 27.5434 48.0109 27.0443 47.053 26.9098C46.0908 26.7733 45.1414 27.026 44.3734 27.6138L41.8699 29.5327L41.8688 29.5338L38.0734 32.368L35.3577 31.2863C40.2004 29.1135 43.585 24.2697 43.585 18.6461C43.585 11.0001 37.3396 4.7793 29.6627 4.7793C21.9858 4.7793 15.7405 11.0001 15.7405 18.6461C15.7405 21.4174 16.5692 23.9945 17.9805 26.163L12.4529 26.115C12.4497 26.115 12.4465 26.115 12.4433 26.115C12.4262 26.115 12.4124 26.1235 12.3964 26.1246C12.2908 26.1289 12.1873 26.1503 12.086 26.1865C12.0604 26.1961 12.0338 26.2015 12.0093 26.2131C11.9965 26.2185 11.9837 26.2195 11.9709 26.2259L5.50468 29.4184C5.50356 29.4184 5.50256 29.4184 5.50256 29.4194L1.71575 31.2405C1.67412 31.2586 1.6315 31.2831 1.58987 31.3108C0.0804746 32.3156 -0.433659 34.289 0.393104 35.9018C0.833611 36.7594 1.5835 37.3909 2.50514 37.6799C2.86039 37.7908 3.22302 37.8453 3.58353 37.8453C4.16279 37.8453 4.73667 37.7034 5.26243 37.4229L8.03798 35.9466L12.566 33.6085L15.2797 33.5925L4.39629 44.4237C4.39529 44.4248 4.39417 44.4248 4.39304 44.4258L1.71563 47.0924C1.08312 47.7218 0.73536 48.557 0.73536 49.4477C0.73536 50.3374 1.08312 51.1746 1.71563 51.8051C2.36526 52.4515 3.21965 52.7758 4.07404 52.7758C4.92955 52.7758 5.78281 52.4515 6.43457 51.8051L9.06287 49.1875L12.5445 46.5879L14.3462 48.3821L10.8229 51.8904C10.8219 51.8915 10.8208 51.8915 10.8196 51.8925L8.14223 54.5592C7.50972 55.1886 7.16196 56.0237 7.16196 56.9145C7.16196 57.8041 7.50972 58.6414 8.14223 59.2719C8.79186 59.9183 9.64738 60.2425 10.5018 60.2425C11.3562 60.2425 12.2117 59.9183 12.8623 59.2719L15.5407 56.6052L19.8255 52.3385C19.8267 52.3374 19.8267 52.3364 19.8277 52.3353L21.8469 50.3352L21.8394 50.3277C21.8522 50.315 21.8703 50.3106 21.8832 50.2969L32.2151 38.9804L39.1571 39.9682C39.2072 39.9757 39.2573 39.9788 39.3075 39.9788C39.4366 39.9788 39.5613 39.948 39.6819 39.9021C39.7171 39.8893 39.748 39.8722 39.7811 39.8552C39.8195 39.836 39.86 39.8253 39.8964 39.8008L46.3231 35.5341C46.3466 35.5181 46.3593 35.4925 46.3817 35.4755C46.4073 35.4553 46.4393 35.4468 46.4627 35.4243L49.0056 33.0424C50.3288 31.8026 50.5111 29.7717 49.4295 28.3189ZM4.26079 35.5403C3.91416 35.7259 3.52053 35.7631 3.14402 35.6438C2.77064 35.5275 2.46776 35.2725 2.29063 34.928C1.9685 34.3008 2.15513 33.537 2.71939 33.1242L5.34668 31.8602L5.97919 33.7087L6.24482 34.4853L4.26079 35.5403ZM11.255 31.8848L8.15848 33.4849L7.64759 31.9915L7.28071 30.9183L11.3342 28.9172L11.255 31.8848ZM41.4539 18.644C41.4539 20.4808 41.0155 22.2132 40.256 23.763L31.8932 19.9645C31.8057 18.8179 31.2106 17.8141 30.3167 17.189L33.2447 7.46834C38.0001 8.98099 41.4539 13.4173 41.4539 18.644ZM17.876 18.644C17.876 12.1745 23.1646 6.91045 29.6649 6.91045C30.1706 6.91045 30.6655 6.95308 31.1551 7.01496L28.291 16.5224C28.2527 16.5212 28.2164 16.5106 28.1769 16.5106C26.1118 16.5106 24.4317 18.1853 24.4317 20.244C24.4317 22.3027 26.1118 23.9775 28.1769 23.9775C29.5657 23.9775 30.7657 23.2106 31.4132 22.0883L39.1381 25.5977C36.9887 28.4905 33.5486 30.3776 29.6648 30.3776C23.1646 30.3776 17.876 25.1135 17.876 18.644ZM29.7887 20.244C29.7887 21.1262 29.0654 21.8441 28.1769 21.8441C27.2884 21.8441 26.5651 21.1262 26.5651 20.244C26.5651 19.3619 27.2884 18.644 28.1769 18.644C29.0654 18.644 29.7887 19.3619 29.7887 20.244ZM4.92968 50.2925C4.45717 50.7608 3.69228 50.7598 3.2209 50.2936C2.99365 50.0664 2.86889 49.7667 2.86889 49.4477C2.86889 49.1299 2.99365 48.8301 3.2209 48.6051L5.14505 46.6882L6.84746 48.3832L4.92968 50.2925ZM11.3574 57.7594C10.8849 58.2276 10.119 58.2287 9.6475 57.7605C9.42025 57.5332 9.29549 57.2336 9.29549 56.9146C9.29549 56.5967 9.42025 56.297 9.6475 56.072L11.5729 54.1541L12.3783 54.9552L13.2764 55.8491L11.3574 57.7594ZM18.3208 50.8216C18.3196 50.8226 18.3186 50.8226 18.3175 50.8238L14.7878 54.3438L13.9824 53.5427L13.0843 52.6488L16.6107 49.1384C16.6107 49.1384 16.6107 49.1384 16.6107 49.1374C16.6119 49.1362 16.6129 49.1362 16.614 49.1352C16.694 49.0552 16.7441 48.9592 16.7932 48.8643C16.8071 48.8366 16.8337 48.8131 16.8455 48.7843C16.8786 48.7022 16.8839 48.6137 16.8967 48.5272C16.9031 48.4781 16.9245 48.4323 16.9245 48.3821C16.9245 48.3106 16.8989 48.2413 16.884 48.1708C16.8712 48.1068 16.8712 48.0417 16.8466 47.98C16.8061 47.8797 16.7367 47.7912 16.6642 47.7047C16.644 47.6812 16.6365 47.6513 16.6141 47.629C16.6141 47.629 16.6141 47.629 16.613 47.629C16.6119 47.628 16.6119 47.6257 16.6109 47.6247L13.3969 44.4247C13.3628 44.3905 13.3191 44.3767 13.2807 44.3479C13.2242 44.3042 13.1698 44.2637 13.1068 44.2327C13.0461 44.2028 12.9842 44.1847 12.9202 44.1675C12.8519 44.1483 12.7858 44.1334 12.7143 44.128C12.6492 44.1238 12.5884 44.1302 12.5234 44.1377C12.4519 44.1462 12.3848 44.1558 12.3154 44.1782C12.2482 44.1995 12.1885 44.2325 12.1267 44.2678C12.0872 44.2902 12.0424 44.2977 12.005 44.3254L8.45836 46.9729L6.6567 45.1788L11.4547 40.4065L20.1759 48.9837L18.3208 50.8216ZM31.9584 36.7883C31.9275 36.784 31.8986 36.7958 31.8677 36.7937C31.7898 36.7894 31.7152 36.7948 31.6373 36.8075C31.5766 36.8182 31.519 36.8299 31.4613 36.8502C31.3931 36.8737 31.3312 36.9057 31.2682 36.944C31.2085 36.9803 31.1541 37.0187 31.1018 37.0667C31.0762 37.089 31.0453 37.0998 31.0218 37.1253L21.6253 47.4167L12.9692 38.9034L18.6354 33.2671C19.0525 32.8511 19.0546 32.1758 18.6386 31.7577C18.4285 31.5476 18.1523 31.4441 17.876 31.4452V31.4442L13.4386 31.4708L13.4941 28.2559L19.7022 28.3093C22.2323 30.8971 25.7609 32.511 29.6649 32.511C30.5396 32.511 31.393 32.4203 32.2239 32.2656C32.3039 32.3296 32.3827 32.3947 32.4831 32.4352L37.3024 34.3553L37.6074 35.872L37.9637 37.6427L31.9584 36.7883ZM40.0406 37.1445L39.4145 34.0287L42.3073 31.8687L43.0647 32.8735L44.2007 34.3818L40.0406 37.1445ZM47.5478 31.4826L45.8721 33.0527L44.0097 30.5802L45.6726 29.3055C45.9829 29.0667 46.3745 28.9695 46.7585 29.0197C47.1446 29.074 47.486 29.2757 47.7185 29.5882C48.1516 30.1717 48.078 30.9856 47.5478 31.4826Z" fill="#2E2F42"/>
<path d="M27.204 37.0876L22.918 32.8209C22.5032 32.406 21.8289 32.406 21.4129 32.8209L17.1281 37.0876C16.9276 37.2892 16.8145 37.5601 16.8145 37.8439C16.8145 38.1276 16.9265 38.3996 17.1281 38.6001L21.4129 42.8668C21.6209 43.0737 21.894 43.1772 22.166 43.1772C22.438 43.1772 22.711 43.0737 22.918 42.8668L27.204 38.6001C27.4045 38.3996 27.5186 38.1276 27.5186 37.8439C27.5186 37.5601 27.4055 37.2881 27.204 37.0876ZM22.166 40.6055L19.3926 37.8439L22.166 35.0822L24.9405 37.8439L22.166 40.6055Z" fill="#2E2F42"/>
<path d="M34.3278 10.1406L33.8125 12.2122C33.9544 12.2474 37.2878 13.1157 37.2878 16.5098H39.4212C39.4211 12.4755 36.0899 10.579 34.3278 10.1406Z" fill="#2E2F42"/>
<path d="M39.4225 18.6445H37.2891V20.7779H39.4225V18.6445Z" fill="#2E2F42"/>
</svg>
