<svg width="64" height="64" viewBox="0 0 64 64" fill="none" xmlns="http://www.w3.org/2000/svg">
<g clip-path="url(#clip0_2628_626513)">
<path d="M29.8516 29.9297H31.9838V39.5247H29.8516V29.9297Z" fill="#4D5AE5"/>
<path d="M38.3809 34.1934H40.5131V39.5239H38.3809V34.1934Z" fill="#4D5AE5"/>
<path d="M21.3223 37.3926H23.4545V39.5248H21.3223V37.3926Z" fill="#4D5AE5"/>
<path d="M14.9258 36.3262H17.058V39.5245H14.9258V36.3262Z" fill="#4D5AE5"/>
<path d="M3.19833 56.5817H54.3715C56.1378 56.5817 57.5699 55.1496 57.5699 53.3833V49.1189C57.5699 47.3526 56.1378 45.9206 54.3715 45.9206H53.3054V19.334L59.3611 13.5974C60.7666 14.2903 62.4678 13.8697 63.3876 12.6C64.308 11.3309 64.1789 9.58336 63.0826 8.46311C61.9863 7.34287 60.2424 7.17577 58.953 8.06749C57.6641 8.95973 57.206 10.651 57.8681 12.0716L53.3054 16.397V13.9373C53.3054 12.1711 51.8734 10.739 50.1071 10.739H7.46276C5.6965 10.739 4.26443 12.1711 4.26443 13.9373V45.9206H3.19833C1.43206 45.9206 0 47.3526 0 49.1189V53.3833C0 55.1496 1.43206 56.5817 3.19833 56.5817ZM60.7682 9.6729C61.3569 9.6729 61.8343 10.1503 61.8343 10.739C61.8343 11.3278 61.3569 11.8051 60.7682 11.8051C60.1794 11.8051 59.7021 11.3278 59.7021 10.739C59.7021 10.1503 60.1794 9.6729 60.7682 9.6729ZM6.39665 13.9373C6.39665 13.3486 6.874 12.8712 7.46276 12.8712H50.1071C50.6958 12.8712 51.1732 13.3486 51.1732 13.9373V18.4147L49.041 20.4407V16.0695C49.041 15.4808 48.5636 15.0034 47.9749 15.0034H9.59498C9.00622 15.0034 8.52887 15.4808 8.52887 16.0695V42.7223C8.52887 43.311 9.00622 43.7884 9.59498 43.7884H47.9749C48.5636 43.7884 49.041 43.311 49.041 42.7223V23.3735L51.1732 21.3532V45.9206H6.39665V13.9373ZM15.9916 27.7967C14.5492 27.7926 13.2826 28.7535 12.899 30.144C12.5153 31.5344 13.1093 33.0091 14.3498 33.7452C15.5898 34.4813 17.1697 34.2965 18.2061 33.2933L21.912 35.1528C22.3425 35.3683 22.8646 35.2673 23.1847 34.9076L31.0624 26.0451L38.8062 31.8477C39.2216 32.159 39.8016 32.1257 40.1784 31.7691L46.9088 25.3938V41.6562H10.6611V17.1357H46.9088V22.4563L39.3658 29.5994L31.5569 23.7452C31.1134 23.4131 30.4892 23.4756 30.1207 23.8894L22.1348 32.8748L19.1493 31.3818C19.1712 31.2538 19.1847 31.1247 19.19 30.9951C19.19 29.2288 17.7579 27.7967 15.9916 27.7967ZM17.0577 30.9951C17.0577 31.5838 16.5804 32.0612 15.9916 32.0612C15.4029 32.0612 14.9255 31.5838 14.9255 30.9951C14.9255 30.4063 15.4029 29.929 15.9916 29.929C16.5804 29.929 17.0577 30.4063 17.0577 30.9951ZM23.4544 48.0528H34.1155V49.1189C34.1155 49.7077 33.6381 50.185 33.0494 50.185H24.5205C23.9317 50.185 23.4544 49.7077 23.4544 49.1189V48.0528ZM2.13222 49.1189C2.13222 48.5302 2.60957 48.0528 3.19833 48.0528H21.3222V49.1189C21.3222 50.8852 22.7542 52.3172 24.5205 52.3172H33.0494C34.8156 52.3172 36.2477 50.8852 36.2477 49.1189V48.0528H54.3715C54.9603 48.0528 55.4376 48.5302 55.4376 49.1189V53.3833C55.4376 53.9721 54.9603 54.4495 54.3715 54.4495H3.19833C2.60957 54.4495 2.13222 53.9721 2.13222 53.3833V49.1189Z" fill="#2E2F42"/>
</g>
<defs>
<clipPath id="clip0_2628_626513">
<rect width="64" height="64" fill="white"/>
</clipPath>
</defs>
</svg>
